<svg xmlns="http://www.w3.org/2000/svg" width="30.594" height="30.594" viewBox="0 0 30.594 30.594">
  <g id="account_circle-24px" opacity="0.35">
    <path id="Path_2" data-name="Path 2" d="M17.3,2a15.3,15.3,0,1,0,15.3,15.3A15.3,15.3,0,0,0,17.3,2Zm0,4.589a4.589,4.589,0,1,1-4.589,4.589A4.583,4.583,0,0,1,17.3,6.589Zm0,21.722a11.015,11.015,0,0,1-9.178-4.926c.046-3.044,6.119-4.711,9.178-4.711,3.044,0,9.132,1.667,9.178,4.711A11.015,11.015,0,0,1,17.3,28.311Z" transform="translate(-2 -2)" fill="#fff"/>
  </g>
</svg>
